<?xml version="1.0" encoding="UTF-8"?><svg id="Capa_1" xmlns="http://www.w3.org/2000/svg" xmlns:xlink="http://www.w3.org/1999/xlink" viewBox="0 0 167.38 156.22"><defs><style>.cls-1{fill:#3e2b86;}.cls-1,.cls-2{stroke-width:0px;}.cls-2{fill:url(#Degradado_sin_nombre_3);}</style><linearGradient id="Degradado_sin_nombre_3" x1="-129.55" y1="199.87" x2="-101.76" y2="167.9" gradientTransform="translate(120.6 -135.55) rotate(-21.74)" gradientUnits="userSpaceOnUse"><stop offset="0" stop-color="#ad1758"/><stop offset=".18" stop-color="#ba195f"/><stop offset=".51" stop-color="#dc1e72"/><stop offset=".59" stop-color="#e72078"/></linearGradient></defs><path class="cls-1" d="M95.26,113.11c-19.34,7.71-41.26-1.71-48.98-21.05-7.71-19.34,1.71-41.26,21.05-48.98,12.97-5.17,27.09-2.62,37.31,5.45l14.09-17.87c-16.4-12.92-39.05-17-59.83-8.7-31.01,12.37-46.12,47.52-33.75,78.53,12.37,31.01,47.52,46.12,78.53,33.75,20.81-8.3,34.44-26.86,37.43-47.55l-22.53-3.27c-1.85,12.91-10.34,24.51-23.33,29.69Z"/><polygon class="cls-1" points="101.39 70.05 120.64 72.84 139.88 75.63 125.47 39.51 113.42 54.79 101.39 70.05"/><path class="cls-2" d="M94.44,61.49c-5.75-4.54-13.69-5.98-20.98-3.07-10.87,4.33-16.17,16.66-11.83,27.53,4.34,10.87,16.66,16.17,27.53,11.83,7.31-2.92,12.09-9.45,13.12-16.73l-20.87-3.03,13.04-16.53Z"/></svg>