<?xml version="1.0" encoding="UTF-8"?><svg id="Capa_1" xmlns="http://www.w3.org/2000/svg" viewBox="0 0 192.83 82.32"><defs><style>.cls-1{fill:#fff;stroke-width:0px;}</style></defs><path class="cls-1" d="M82.09,29.79c-.7,0-1.25-.2-1.65-.61-.41-.41-.61-.96-.61-1.65v-12.56c.18-.03.46-.08.85-.13s.76-.08,1.12-.08.7.03.98.08.52.16.72.3c.19.15.34.35.44.61.1.26.15.6.15,1.02v9.6h5.56c.11.18.22.42.32.72.1.3.15.61.15.94,0,.65-.14,1.11-.41,1.37-.28.27-.64.4-1.09.4h-6.51Z"/><path class="cls-1" d="M91.88,14.62c0-.62.21-1.13.62-1.55s.96-.63,1.64-.63,1.23.21,1.64.63.62.94.62,1.55-.21,1.13-.62,1.56c-.41.42-.96.63-1.64.63s-1.23-.21-1.64-.63c-.41-.42-.62-.94-.62-1.56ZM96.21,29.69c-.18.03-.44.08-.79.13-.35.06-.7.08-1.06.08s-.68-.02-.96-.07c-.28-.05-.52-.15-.72-.29s-.34-.34-.45-.6c-.11-.25-.16-.58-.16-.98v-9.89c.18-.03.44-.08.79-.13.35-.06.7-.08,1.06-.08s.68.02.96.07.52.15.72.29c.19.15.34.34.45.59s.16.58.16.98v9.89Z"/><path class="cls-1" d="M98.32,23.81c0-1.07.16-2,.49-2.78.32-.79.77-1.44,1.35-1.96.57-.52,1.25-.9,2.02-1.15.77-.25,1.6-.38,2.49-.38.32,0,.64.03.95.08s.56.13.75.21v-3.94c.16-.05.42-.1.78-.16s.72-.08,1.09-.08.68.02.96.07c.28.05.52.15.72.29s.34.34.44.6c.1.25.15.58.15.98v11.52c0,.76-.36,1.37-1.07,1.82-.47.31-1.08.58-1.82.81-.75.24-1.6.35-2.58.35-1.05,0-2-.15-2.83-.44-.83-.29-1.54-.71-2.11-1.26-.58-.55-1.01-1.21-1.31-1.98-.3-.77-.45-1.64-.45-2.61ZM105.22,20.77c-.87,0-1.55.25-2.02.75-.47.5-.7,1.26-.7,2.28s.22,1.76.66,2.27c.44.51,1.07.77,1.89.77.29,0,.55-.04.79-.13.23-.09.42-.19.55-.3v-5.34c-.32-.2-.71-.29-1.17-.29Z"/><path class="cls-1" d="M119.32,30.1c-.96,0-1.84-.13-2.66-.4-.82-.27-1.53-.67-2.14-1.2s-1.08-1.21-1.43-2.02-.52-1.76-.52-2.84.17-1.99.52-2.76.81-1.4,1.37-1.9c.57-.49,1.21-.86,1.94-1.09.73-.24,1.47-.35,2.24-.35.86,0,1.64.13,2.34.39.71.26,1.31.62,1.82,1.07.51.45.91,1,1.19,1.63.28.63.42,1.32.42,2.07,0,.55-.15.97-.46,1.26-.31.29-.74.48-1.29.56l-6,.9c.18.54.54.94,1.09,1.2.55.27,1.18.4,1.89.4.66,0,1.29-.08,1.88-.25.59-.17,1.07-.37,1.45-.6.26.16.48.39.66.68.18.29.27.6.27.92,0,.73-.34,1.27-1.02,1.63-.52.28-1.1.46-1.75.56-.65.1-1.25.15-1.82.15ZM118.64,20.55c-.39,0-.72.07-1.01.19-.28.13-.51.3-.69.5-.18.2-.31.43-.4.68s-.14.51-.16.77l4.15-.68c-.05-.32-.23-.65-.53-.97-.31-.32-.76-.49-1.36-.49Z"/><path class="cls-1" d="M130.54,29.69c-.16.05-.42.1-.76.15-.35.05-.71.07-1.08.07s-.68-.02-.96-.07c-.28-.05-.52-.15-.72-.29s-.34-.34-.45-.6c-.11-.25-.16-.58-.16-.98v-7.29c0-.37.07-.69.21-.96.14-.27.34-.51.6-.72.26-.21.58-.4.96-.57.38-.17.79-.32,1.23-.45s.89-.23,1.36-.3c.47-.07.94-.11,1.41-.11.78,0,1.39.15,1.85.45.45.3.68.79.68,1.47,0,.23-.03.45-.1.67-.07.22-.15.42-.24.59-.34,0-.69.02-1.04.05s-.71.08-1.04.15c-.34.07-.66.13-.96.21-.3.07-.55.16-.77.25v8.29Z"/><path class="cls-1" d="M140.89,17.54c.88,0,1.67.09,2.39.27.72.18,1.34.45,1.85.81.51.36.9.83,1.18,1.38s.41,1.22.41,1.98v5.44c0,.42-.12.77-.35,1.03-.23.27-.51.5-.84.69-1.05.63-2.54.95-4.45.95-.86,0-1.63-.08-2.32-.24-.69-.16-1.28-.4-1.77-.73-.5-.32-.88-.74-1.14-1.24s-.4-1.08-.4-1.75c0-1.12.33-1.98,1-2.58.66-.6,1.69-.97,3.09-1.12l3.18-.34v-.17c0-.47-.21-.81-.62-1.01-.41-.2-1.01-.3-1.79-.3-.62,0-1.21.06-1.8.19-.58.13-1.11.29-1.58.49-.21-.15-.39-.37-.53-.67s-.22-.61-.22-.94c0-.42.1-.76.3-1.01.2-.25.51-.47.94-.64.47-.18,1.02-.31,1.66-.39s1.24-.12,1.81-.12ZM141.09,27.09c.28,0,.58-.03.91-.08s.58-.13.74-.23v-1.94l-1.75.15c-.45.03-.83.13-1.12.29-.29.16-.44.41-.44.73s.12.59.38.79c.25.2.68.3,1.28.3Z"/><path class="cls-1" d="M158.24,25.65c0,.42.13.72.4.9.27.18.64.27,1.13.27.24,0,.49-.02.75-.06.26-.04.49-.09.68-.16.15.18.27.38.38.6.1.22.16.48.16.79,0,.62-.23,1.12-.69,1.51s-1.28.58-2.44.58c-1.43,0-2.52-.32-3.29-.97s-1.15-1.7-1.15-3.16v-10.4c.18-.05.43-.1.76-.16s.68-.08,1.06-.08c.71,0,1.27.13,1.66.38.4.25.59.78.59,1.59v1.56h3.18c.1.18.19.4.28.67.09.27.13.56.13.89,0,.57-.13.98-.38,1.23-.25.25-.59.38-1.01.38h-2.21v3.67Z"/><path class="cls-1" d="M163.83,18.07c.16-.05.42-.1.77-.15.35-.05.71-.07,1.08-.07s.68.02.96.07c.28.05.52.15.72.29.2.15.34.34.45.59.1.25.16.58.16.98v5.22c0,.66.16,1.14.49,1.42s.79.42,1.41.42c.37,0,.68-.03.91-.1.23-.06.42-.13.55-.19v-8.5c.16-.05.42-.1.77-.15.35-.05.71-.07,1.08-.07s.68.02.96.07c.28.05.52.15.72.29.19.15.34.34.45.59s.16.58.16.98v7.39c0,.81-.34,1.42-1.02,1.82-.57.36-1.24.63-2.03.81-.79.19-1.64.28-2.56.28-.87,0-1.68-.1-2.42-.29-.74-.2-1.37-.49-1.91-.9-.54-.4-.95-.93-1.24-1.57-.29-.64-.44-1.41-.44-2.32v-6.95Z"/><path class="cls-1" d="M94.46,51.65c-.25.25-.6.44-1.07.57-.47.13-1.03.2-1.68.2s-1.27-.1-1.85-.29c-.58-.19-1.06-.66-1.43-1.4l-2.62-5.34c-.26-.55-.5-1.06-.71-1.55-.21-.48-.44-1.04-.69-1.68l-.16.03c.07.95.11,1.92.12,2.91,0,.99.01,1.96.01,2.91v4.1c-.19.05-.49.11-.88.16s-.79.08-1.18.08-.73-.03-1.03-.08c-.3-.05-.55-.16-.74-.32-.19-.16-.34-.37-.45-.65-.11-.27-.16-.63-.16-1.07v-13.22c.25-.35.63-.62,1.14-.79.51-.18,1.06-.26,1.64-.26.65,0,1.27.1,1.86.3.59.2,1.06.67,1.41,1.39l2.64,5.34c.26.55.5,1.06.71,1.55.21.49.44,1.04.69,1.68l.13-.03c-.07-.95-.12-1.9-.13-2.85s-.03-1.9-.03-2.85v-4.28c.19-.05.49-.11.89-.16s.79-.08,1.18-.08c.78,0,1.37.14,1.77.41.41.27.61.84.61,1.71v13.59Z"/><path class="cls-1" d="M104.35,52.63c-1.04,0-2-.15-2.89-.44-.89-.29-1.67-.73-2.33-1.31-.66-.58-1.18-1.31-1.56-2.19-.38-.88-.57-1.91-.57-3.09s.19-2.16.57-3,.88-1.52,1.49-2.06c.62-.54,1.32-.93,2.11-1.19.79-.26,1.6-.38,2.43-.38.93,0,1.78.14,2.55.42.77.28,1.43.67,1.98,1.16.56.49.99,1.08,1.29,1.77.31.69.46,1.44.46,2.25,0,.6-.17,1.06-.5,1.37-.33.32-.8.52-1.4.61l-6.53.98c.19.58.59,1.02,1.19,1.31.6.29,1.29.44,2.06.44.72,0,1.41-.09,2.05-.28.64-.19,1.17-.4,1.57-.65.28.18.52.42.71.74.19.32.29.65.29,1,0,.79-.37,1.38-1.11,1.77-.56.3-1.2.5-1.9.61-.71.11-1.37.16-1.98.16ZM103.61,42.24c-.42,0-.79.07-1.1.21s-.56.32-.75.54c-.19.22-.34.47-.44.74-.1.27-.15.55-.17.83l4.52-.74c-.05-.35-.25-.7-.58-1.06s-.83-.53-1.48-.53Z"/><path class="cls-1" d="M118.33,38.96c1,0,1.92.13,2.74.38.82.25,1.51.59,2.08.99.35.25.63.52.83.82.2.3.3.69.3,1.16v9.25c0,.93-.18,1.74-.53,2.42-.35.68-.83,1.24-1.44,1.69-.61.45-1.32.78-2.14.99-.82.21-1.7.32-2.63.32-1.6,0-2.86-.22-3.78-.65-.92-.43-1.38-1.13-1.38-2.1,0-.41.08-.76.25-1.07.17-.31.36-.54.57-.7.51.28,1.09.52,1.73.71.64.19,1.31.29,2,.29.95,0,1.71-.16,2.27-.48.56-.32.85-.83.85-1.53v-.42c-.72.32-1.6.48-2.64.48-.79,0-1.55-.12-2.26-.36-.71-.24-1.34-.61-1.88-1.11-.54-.5-.97-1.15-1.29-1.94-.33-.79-.49-1.74-.49-2.83s.17-2.01.52-2.8.82-1.45,1.43-1.97c.61-.52,1.33-.91,2.17-1.16.84-.26,1.75-.38,2.74-.38ZM119.97,42.79c-.12-.07-.3-.14-.54-.21-.24-.07-.53-.11-.89-.11-.86,0-1.51.24-1.94.73-.43.49-.65,1.18-.65,2.08,0,1.02.22,1.76.65,2.21s.98.67,1.65.67c.72,0,1.29-.17,1.72-.5v-4.86Z"/><path class="cls-1" d="M140.35,45.78c0,1.09-.17,2.07-.5,2.92s-.81,1.57-1.41,2.15c-.61.58-1.33,1.02-2.18,1.32s-1.79.45-2.83.45-1.98-.16-2.83-.48-1.57-.77-2.18-1.36c-.61-.59-1.08-1.31-1.41-2.15s-.5-1.8-.5-2.85.17-1.98.5-2.83.81-1.56,1.41-2.15c.61-.59,1.33-1.04,2.18-1.36.85-.32,1.79-.48,2.83-.48s1.98.16,2.83.49,1.57.78,2.18,1.37c.61.59,1.08,1.31,1.41,2.15s.5,1.78.5,2.8ZM131.09,45.78c0,1.08.21,1.9.62,2.47s.99.86,1.73.86,1.31-.29,1.71-.87c.4-.58.59-1.4.59-2.46s-.2-1.87-.61-2.44c-.41-.57-.98-.86-1.72-.86s-1.31.29-1.72.86c-.41.57-.61,1.39-.61,2.44Z"/><path class="cls-1" d="M149.78,42.5c-.44,0-.86.07-1.25.21-.4.14-.74.35-1.03.62-.29.27-.52.61-.7,1.02-.18.41-.26.88-.26,1.43,0,1.09.31,1.91.94,2.46.62.55,1.39.82,2.29.82.53,0,.99-.06,1.38-.18.39-.12.73-.26,1.03-.4.35.25.62.52.79.81.18.29.26.64.26,1.04,0,.72-.34,1.28-1.03,1.68-.69.4-1.64.59-2.85.59-1.11,0-2.11-.16-3.01-.49-.9-.33-1.67-.78-2.31-1.37-.64-.59-1.14-1.3-1.49-2.13s-.53-1.74-.53-2.75c0-1.16.19-2.18.57-3.05s.89-1.59,1.55-2.15c.65-.56,1.41-.99,2.26-1.27.85-.28,1.76-.42,2.71-.42,1.27,0,2.25.23,2.93.69s1.03,1.05,1.03,1.77c0,.33-.08.65-.24.94-.16.29-.34.54-.56.75-.3-.14-.66-.28-1.08-.41s-.88-.2-1.38-.2Z"/><path class="cls-1" d="M155.36,35.79c0-.67.22-1.23.67-1.69.45-.46,1.04-.69,1.78-.69s1.33.23,1.78.69c.45.46.67,1.02.67,1.69s-.22,1.23-.67,1.69-1.04.69-1.78.69-1.33-.23-1.78-.69-.67-1.02-.67-1.69ZM160.06,52.18c-.19.04-.48.08-.86.15-.38.06-.76.09-1.15.09s-.74-.03-1.04-.08c-.31-.05-.57-.16-.78-.32-.21-.16-.37-.38-.49-.65-.12-.27-.17-.63-.17-1.07v-10.76c.19-.04.48-.08.86-.15s.76-.09,1.15-.09.74.03,1.04.08c.31.05.57.16.78.32.21.16.37.38.49.65.11.27.17.63.17,1.07v10.76Z"/><path class="cls-1" d="M176.21,45.78c0,1.09-.17,2.07-.5,2.92s-.81,1.57-1.41,2.15c-.61.58-1.33,1.02-2.18,1.32s-1.79.45-2.83.45-1.98-.16-2.83-.48-1.57-.77-2.18-1.36c-.61-.59-1.08-1.31-1.41-2.15s-.5-1.8-.5-2.85.17-1.98.5-2.83.81-1.56,1.41-2.15c.61-.59,1.33-1.04,2.18-1.36.85-.32,1.79-.48,2.83-.48s1.98.16,2.83.49,1.57.78,2.18,1.37c.61.59,1.08,1.31,1.41,2.15s.5,1.78.5,2.8ZM166.96,45.78c0,1.08.21,1.9.62,2.47s.99.86,1.73.86,1.31-.29,1.71-.87c.4-.58.59-1.4.59-2.46s-.2-1.87-.61-2.44c-.41-.57-.98-.86-1.72-.86s-1.31.29-1.72.86c-.41.57-.61,1.39-.61,2.44Z"/><path class="cls-1" d="M81.09,65.47h1.35v4.35h2.25v1.15h-3.59v-5.5Z"/><path class="cls-1" d="M89.16,69.81h-1.71l-.33,1.15h-1.38l1.87-5.5h1.42l1.87,5.5h-1.38l-.34-1.15ZM88.3,66.72s-.12.6-.22.95l-.32,1.07h1.08l-.31-1.07c-.1-.35-.22-.95-.22-.95h-.02Z"/><path class="cls-1" d="M94.81,65.47h3.37v1.15h-2.02v1.15h1.68v1.15h-1.68v2.04h-1.35v-5.5Z"/><path class="cls-1" d="M102.4,69.81h-1.71l-.33,1.15h-1.38l1.87-5.5h1.42l1.87,5.5h-1.38l-.34-1.15ZM101.62,63.96h1.32l-.91,1.15h-1.03l.62-1.15ZM101.54,66.72s-.12.6-.22.95l-.32,1.07h1.08l-.31-1.07c-.1-.35-.22-.95-.22-.95h-.02Z"/><path class="cls-1" d="M105.51,65.47h2.02c1.1,0,1.87.49,1.87,1.44,0,.46-.22.93-.64,1.17v.02c.63.19.86.75.86,1.24,0,1.2-1,1.64-2.09,1.64h-2.02v-5.5ZM107.55,67.6c.34,0,.49-.25.49-.51s-.15-.47-.51-.47h-.67v.98h.69ZM107.67,69.81c.39,0,.58-.27.58-.58s-.18-.56-.58-.56h-.81v1.14h.81Z"/><path class="cls-1" d="M111.35,65.47h1.91c.56,0,.83.04,1.07.13.62.24,1.01.8,1.01,1.6,0,.58-.28,1.22-.82,1.5v.02s.08.1.21.33l1.07,1.92h-1.5l-.98-1.85h-.63v1.85h-1.35v-5.5ZM113.28,67.96c.43,0,.7-.24.7-.68,0-.42-.15-.66-.83-.66h-.45v1.34h.58Z"/><path class="cls-1" d="M117.37,65.47h1.35v5.5h-1.35v-5.5Z"/><path class="cls-1" d="M123.28,65.38c1.36,0,2.06.78,2.06.78l-.62,1.02s-.62-.56-1.38-.56c-1.05,0-1.55.78-1.55,1.57s.54,1.65,1.55,1.65c.83,0,1.46-.68,1.46-.68l.69.98s-.78.92-2.21.92c-1.72,0-2.88-1.22-2.88-2.85s1.23-2.83,2.88-2.83Z"/><path class="cls-1" d="M129.84,69.81h-1.71l-.33,1.15h-1.38l1.87-5.5h1.42l1.87,5.5h-1.38l-.34-1.15ZM128.98,66.72s-.12.6-.22.95l-.31,1.07h1.08l-.31-1.07c-.1-.35-.22-.95-.22-.95h-.01Z"/><path class="cls-1" d="M135.48,65.47h1.95c1.73,0,2.84,1.01,2.84,2.74s-1.11,2.76-2.84,2.76h-1.95v-5.5ZM137.38,69.81c.93,0,1.5-.55,1.5-1.61s-.59-1.58-1.5-1.58h-.55v3.19h.55Z"/><path class="cls-1" d="M141.98,65.47h3.45v1.15h-2.1v1h1.68v1.15h-1.68v1.04h2.21v1.15h-3.55v-5.5Z"/><path class="cls-1" d="M149.81,65.47h1.35v4.35h2.25v1.15h-3.59v-5.5Z"/><path class="cls-1" d="M154.91,65.47h3.45v1.15h-2.1v1h1.68v1.15h-1.68v1.04h2.21v1.15h-3.55v-5.5Z"/><path class="cls-1" d="M162.96,69.81h-1.71l-.33,1.15h-1.38l1.87-5.5h1.42l1.87,5.5h-1.38l-.34-1.15ZM162.09,66.72s-.12.6-.22.95l-.32,1.07h1.08l-.31-1.07c-.1-.35-.22-.95-.22-.95h-.02Z"/><path class="cls-1" d="M166.06,65.47h1.95c1.73,0,2.84,1.01,2.84,2.74s-1.11,2.76-2.84,2.76h-1.95v-5.5ZM167.96,69.81c.93,0,1.5-.55,1.5-1.61s-.59-1.58-1.5-1.58h-.55v3.19h.55Z"/><path class="cls-1" d="M172.87,69.25s.62.57,1.31.57c.28,0,.58-.11.58-.44,0-.65-2.48-.63-2.48-2.32,0-1.02.85-1.68,1.95-1.68,1.18,0,1.77.62,1.77.62l-.57,1.1s-.55-.48-1.21-.48c-.28,0-.58.12-.58.43,0,.69,2.48.57,2.48,2.31,0,.92-.7,1.71-1.94,1.71s-2.01-.78-2.01-.78l.71-1.02Z"/><path class="cls-1" d="M47.62,59.47c-9.45,3.77-20.16-.84-23.92-10.28-3.77-9.45.84-20.16,10.28-23.92,6.33-2.53,13.23-1.28,18.23,2.66l6.88-8.73c-8.01-6.31-19.07-8.3-29.23-4.25-15.14,6.04-22.53,23.21-16.49,38.36,6.04,15.14,23.21,22.53,38.36,16.49,10.16-4.05,16.82-13.12,18.28-23.22l-11-1.6c-.9,6.31-5.05,11.97-11.4,14.5Z"/><polygon class="cls-1" points="50.62 38.44 60.02 39.8 69.42 41.17 62.38 23.52 56.49 30.99 50.62 38.44"/><path class="cls-1" d="M47.22,34.26c-2.81-2.22-6.69-2.92-10.25-1.5-5.31,2.12-7.9,8.14-5.78,13.45,2.12,5.31,8.14,7.9,13.45,5.78,3.57-1.42,5.9-4.62,6.41-8.17l-10.19-1.48,6.37-8.08Z"/></svg>